<svg width="50" height="50" viewBox="0 0 50 50" fill="none" xmlns="http://www.w3.org/2000/svg">
<circle cx="25" cy="25" r="24.5" fill="#F9FEFF" stroke="#030E12"/>
<path d="M32.04 27.2C32.04 27.0667 32.1067 27 32.24 27H33.24C33.3733 27 33.44 27.0667 33.44 27.2V40.8C33.44 40.9333 33.3733 41 33.24 41H32.06C31.9533 41 31.88 40.9467 31.84 40.84L27.94 30.5C27.9267 30.46 27.9067 30.4467 27.88 30.46C27.8533 30.46 27.84 30.48 27.84 30.52L27.86 40.8C27.86 40.9333 27.7933 41 27.66 41H26.64C26.5067 41 26.44 40.9333 26.44 40.8V27.2C26.44 27.0667 26.5067 27 26.64 27H27.8C27.9067 27 27.98 27.0533 28.02 27.16L31.94 37.52C31.9533 37.56 31.9733 37.58 32 37.58C32.0267 37.5667 32.04 37.54 32.04 37.5V27.2ZM39.0233 41.16C38.0366 41.16 37.2366 40.8333 36.6233 40.18C36.0099 39.5267 35.7033 38.6733 35.7033 37.62V37.16C35.7033 37.0267 35.7699 36.96 35.9033 36.96H36.8833C37.0166 36.96 37.0833 37.0267 37.0833 37.16V37.56C37.0833 38.2667 37.2633 38.84 37.6233 39.28C37.9833 39.7067 38.4499 39.92 39.0233 39.92C39.5833 39.92 40.0499 39.7133 40.4233 39.3C40.7966 38.8867 40.9833 38.34 40.9833 37.66C40.9833 37.2067 40.8899 36.82 40.7033 36.5C40.5299 36.1667 40.2966 35.88 40.0033 35.64C39.7233 35.3867 39.2499 35.0067 38.5833 34.5C37.9166 34.0067 37.3899 33.5867 37.0033 33.24C36.6166 32.88 36.2966 32.4533 36.0433 31.96C35.8033 31.4667 35.6833 30.8867 35.6833 30.22C35.6833 29.18 35.9833 28.36 36.5833 27.76C37.1833 27.1467 37.9633 26.84 38.9233 26.84C39.9366 26.84 40.7433 27.1733 41.3433 27.84C41.9566 28.4933 42.2633 29.3667 42.2633 30.46V30.96C42.2633 31.0933 42.1966 31.16 42.0633 31.16H41.0633C40.9299 31.16 40.8633 31.0933 40.8633 30.96V30.44C40.8633 29.7333 40.6833 29.1667 40.3233 28.74C39.9766 28.3 39.5099 28.08 38.9233 28.08C38.3899 28.08 37.9499 28.2733 37.6033 28.66C37.2566 29.0333 37.0833 29.5667 37.0833 30.26C37.0833 30.6733 37.1566 31.04 37.3033 31.36C37.4633 31.6667 37.6966 31.96 38.0033 32.24C38.3099 32.52 38.7633 32.8867 39.3633 33.34C40.1633 33.9267 40.7566 34.4067 41.1433 34.78C41.5433 35.14 41.8499 35.54 42.0633 35.98C42.2766 36.4067 42.3833 36.9267 42.3833 37.54C42.3833 38.6333 42.0699 39.5133 41.4433 40.18C40.8166 40.8333 40.0099 41.16 39.0233 41.16Z" fill="#030E12"/>
</svg>
