<svg width="50" height="50" viewBox="0 0 50 50" fill="none" xmlns="http://www.w3.org/2000/svg">
<circle cx="25" cy="25" r="25" fill="#030E12"/>
<path d="M32.04 23.262C32.04 23.1287 32.1067 23.062 32.24 23.062H33.24C33.3733 23.062 33.44 23.1287 33.44 23.262V36.862C33.44 36.9953 33.3733 37.062 33.24 37.062H32.06C31.9533 37.062 31.88 37.0087 31.84 36.902L27.94 26.562C27.9267 26.522 27.9067 26.5087 27.88 26.522C27.8533 26.522 27.84 26.542 27.84 26.582L27.86 36.862C27.86 36.9953 27.7933 37.062 27.66 37.062H26.64C26.5067 37.062 26.44 36.9953 26.44 36.862V23.262C26.44 23.1287 26.5067 23.062 26.64 23.062H27.8C27.9067 23.062 27.98 23.1153 28.02 23.222L31.94 33.582C31.9533 33.622 31.9733 33.642 32 33.642C32.0267 33.6287 32.04 33.602 32.04 33.562V23.262ZM39.0233 37.222C38.0366 37.222 37.2366 36.8953 36.6233 36.242C36.0099 35.5887 35.7033 34.7353 35.7033 33.682V33.222C35.7033 33.0887 35.7699 33.022 35.9033 33.022H36.8833C37.0166 33.022 37.0833 33.0887 37.0833 33.222V33.622C37.0833 34.3287 37.2633 34.902 37.6233 35.342C37.9833 35.7687 38.4499 35.982 39.0233 35.982C39.5833 35.982 40.0499 35.7753 40.4233 35.362C40.7966 34.9487 40.9833 34.402 40.9833 33.722C40.9833 33.2687 40.8899 32.882 40.7033 32.562C40.5299 32.2287 40.2966 31.942 40.0033 31.702C39.7233 31.4487 39.2499 31.0687 38.5833 30.562C37.9166 30.0687 37.3899 29.6487 37.0033 29.302C36.6166 28.942 36.2966 28.5153 36.0433 28.022C35.8033 27.5287 35.6833 26.9487 35.6833 26.282C35.6833 25.242 35.9833 24.422 36.5833 23.822C37.1833 23.2087 37.9633 22.902 38.9233 22.902C39.9366 22.902 40.7433 23.2353 41.3433 23.902C41.9566 24.5553 42.2633 25.4287 42.2633 26.522V27.022C42.2633 27.1553 42.1966 27.222 42.0633 27.222H41.0633C40.9299 27.222 40.8633 27.1553 40.8633 27.022V26.502C40.8633 25.7953 40.6833 25.2287 40.3233 24.802C39.9766 24.362 39.5099 24.142 38.9233 24.142C38.3899 24.142 37.9499 24.3353 37.6033 24.722C37.2566 25.0953 37.0833 25.6287 37.0833 26.322C37.0833 26.7353 37.1566 27.102 37.3033 27.422C37.4633 27.7287 37.6966 28.022 38.0033 28.302C38.3099 28.582 38.7633 28.9487 39.3633 29.402C40.1633 29.9887 40.7566 30.4687 41.1433 30.842C41.5433 31.202 41.8499 31.602 42.0633 32.042C42.2766 32.4687 42.3833 32.9887 42.3833 33.602C42.3833 34.6953 42.0699 35.5753 41.4433 36.242C40.8166 36.8953 40.0099 37.222 39.0233 37.222Z" fill="white"/>
</svg>
